<svg width="24" height="22" viewBox="0 0 24 22" fill="none" xmlns="http://www.w3.org/2000/svg">
    <path d="M24 7.85714H19.9246L15.6431 0.381348C15.4307 0.00999118 14.97 -0.111255 14.614 0.112035C14.2588 0.335325 14.1438 0.817929 14.357 1.19008L18.1753 7.85714H5.82466L9.64304 1.19003C9.85618 0.817876 9.7412 0.335272 9.38597 0.111982C9.02927 -0.111308 8.57007 0.00993831 8.35693 0.381295L4.07541 7.85709H0V9.42853H1.62781L3.53319 20.0764C3.73239 21.1913 4.66256 22 5.74513 22H18.2549C19.3374 22 20.2676 21.1913 20.4661 20.0771L22.3721 9.42853H24C24 9.42853 24 7.85714 24 7.85714ZM18.9916 19.7879C18.9258 20.1592 18.6159 20.4286 18.2548 20.4286H5.74513C5.38404 20.4286 5.07425 20.1593 5.0076 19.7872L3.15347 9.42853H20.8465L18.9916 19.7879Z" fill="white"/>
</svg>
